HIERARCHY
ROOT Hips
{
 OFFSET 0.000000 0.000000 0.000000
 CHANNELS 6 Xposition Yposition Zposition Yrotation Xrotation Zrotation
 JOINT Chest
 {
  OFFSET 0.000000 11.328625 -1.258737
  CHANNELS 3 Yrotation Xrotation Zrotation
  JOINT Chest2
  {
   OFFSET 0.000000 12.106861 0.000000
   CHANNELS 3 Yrotation Xrotation Zrotation
   JOINT Chest3
   {
    OFFSET 0.000000 11.050691 0.019618
    CHANNELS 3 Yrotation Xrotation Zrotation
    JOINT Chest4
    {
     OFFSET 0.000000 11.038359 0.019638
     CHANNELS 3 Yrotation Xrotation Zrotation
     JOINT Neck
     {
      OFFSET 0.000000 15.533067 0.000000
      CHANNELS 3 Yrotation Xrotation Zrotation
      JOINT Head
      {
       OFFSET 0.000000 9.869351 -0.010017
       CHANNELS 3 Yrotation Xrotation Zrotation
       End Site
       {
        OFFSET 0.000000 18.041002 0.002980
       }
      }
     }
     JOINT RightCollar
     {
      OFFSET -3.375967 8.695376 0.000000
      CHANNELS 3 Yrotation Xrotation Zrotation
      JOINT RightShoulder
      {
       OFFSET -15.363214 0.000000 0.000000
       CHANNELS 3 Yrotation Xrotation Zrotation
       JOINT RightElbow
       {
        OFFSET -32.169508 0.000000 0.000000
        CHANNELS 3 Yrotation Xrotation Zrotation
        JOINT RightWrist
        {
         OFFSET -24.390617 0.000000 0.000770
         CHANNELS 3 Yrotation Xrotation Zrotation
         End Site
         {
          OFFSET -19.731065 0.000000 0.000000
         }
        }
       }
      }
     }
     JOINT LeftCollar
     {
      OFFSET 3.375967 8.695376 0.000000
      CHANNELS 3 Yrotation Xrotation Zrotation
      JOINT LeftShoulder
      {
       OFFSET 15.363214 0.000000 0.000000
       CHANNELS 3 Yrotation Xrotation Zrotation
       JOINT LeftElbow
       {
        OFFSET 32.169508 0.000000 0.000000
        CHANNELS 3 Yrotation Xrotation Zrotation
        JOINT LeftWrist
        {
         OFFSET 24.390617 0.000000 0.000770
         CHANNELS 3 Yrotation Xrotation Zrotation
         End Site
         {
          OFFSET 19.731065 0.000000 0.000000
         }
        }
       }
      }
     }
    }
   }
  }
 }
 JOINT RightHip
 {
  OFFSET -9.235312 -0.046822 0.005202
  CHANNELS 3 Yrotation Xrotation Zrotation
  JOINT RightKnee
  {
   OFFSET 0.000000 -46.217337 0.004637
   CHANNELS 3 Yrotation Xrotation Zrotation
   JOINT RightAnkle
   {
    OFFSET 0.000000 -44.341153 0.005647
    CHANNELS 3 Yrotation Xrotation Zrotation
    JOINT RightToe
    {
     OFFSET 0.000000 -7.195716 16.233890
     CHANNELS 3 Yrotation Xrotation Zrotation
     End Site
     {
      OFFSET 0.000000 -1.632678 6.983770
     }
    }
   }
  }
 }
 JOINT LeftHip
 {
  OFFSET 9.235312 -0.049215 0.005468
  CHANNELS 3 Yrotation Xrotation Zrotation
  JOINT LeftKnee
  {
   OFFSET 0.000000 -46.217337 0.004637
   CHANNELS 3 Yrotation Xrotation Zrotation
   JOINT LeftAnkle
   {
    OFFSET 0.000000 -44.341153 0.005647
    CHANNELS 3 Yrotation Xrotation Zrotation
    JOINT LeftToe
    {
     OFFSET 0.000000 -7.195716 16.233890
     CHANNELS 3 Yrotation Xrotation Zrotation
     End Site
     {
      OFFSET 0.000000 -1.632678 6.983770
     }
    }
   }
  }
 }
}
MOTION
Frames: 12
Frame Time: 0.016667
10.724825 97.727771 35.504426 -81.915477 -2.008527 -1.325649 0.472710 2.340245 0.046988 0.207927 -4.786185 0.018557 0.207232 1.034208 0.039668 0.158362 6.612354 0.029607 1.424517 15.446023 0.554142 2.455111 -7.341545 0.507982 -3.179887 -1.457515 -0.351146 -9.601205 -31.252383 62.397322 51.295360 -50.460780 61.185417 -5.015784 -4.234944 -20.117719 1.519153 1.862283 0.293562 17.404106 -34.894094 -65.292578 -66.309842 -50.581243 -45.452062 13.413654 -2.524161 27.117229 -2.024233 -12.493615 2.715948 7.693863 20.329577 1.444027 -15.452864 -5.238318 -0.847508 0.000000 0.000000 0.000000 8.025644 -13.498679 7.292639 1.098967 60.147229 2.705963 -1.257983 2.303257 -9.091495 0.003273 -10.310944 0.013190
9.684361 97.854690 35.407320 -81.930879 -2.225992 -1.115842 0.562197 2.323301 -0.089025 0.254574 -4.793873 -0.042514 0.253727 1.026499 -0.016667 0.188999 6.606551 -0.012994 1.407518 15.561435 0.563479 2.419066 -7.127504 0.533467 -3.071852 -1.825140 -0.474154 -8.916172 -31.961082 61.798954 50.259071 -50.970499 61.997830 -5.097809 -4.427831 -20.778293 1.547016 1.362972 0.377861 16.500535 -35.646884 -64.506882 -65.286990 -50.967773 -45.970570 13.356118 -2.833447 27.707181 -2.035074 -11.674225 2.653582 7.380117 20.427839 1.335491 -15.087504 -5.924753 -1.093462 0.000163 0.036750 -0.076691 8.892354 -15.070850 6.868076 2.140012 60.915869 3.773514 -0.506913 0.054720 -8.357013 -0.113223 -5.570186 -0.505019
8.698056 97.976581 35.346354 -81.893932 -2.366226 -0.858877 0.603505 2.267761 -0.244812 0.280748 -4.818758 -0.112111 0.279807 1.001603 -0.083607 0.203529 6.587845 -0.063557 1.401020 15.712913 0.546769 2.411970 -6.846022 0.506971 -2.938370 -2.190600 -0.603419 -8.016048 -32.648822 61.114145 49.280769 -51.515869 62.603886 -5.147217 -4.650081 -21.371614 1.602299 0.860290 0.483009 15.395217 -36.351742 -63.615140 -64.072919 -51.422569 -46.563220 13.248717 -3.122168 28.434272 -1.994614 -10.923803 2.514106 6.942284 20.449492 1.176294 -14.716646 -6.531460 -1.311674 0.000107 0.018379 -0.038344 9.625888 -16.631865 6.327298 3.910182 61.009096 5.339369 -0.523106 -2.087006 -8.085548 -0.065875 -2.210277 -0.264439
7.743140 98.097413 35.299988 -81.791680 -2.471825 -0.660250 0.622783 2.192608 -0.373472 0.295712 -4.852326 -0.169482 0.294710 0.968029 -0.139459 0.210505 6.562629 -0.105723 1.393896 15.872233 0.533938 2.402183 -6.550053 0.488065 -2.812345 -2.560932 -0.733546 -7.121158 -33.333965 60.457202 48.253760 -51.959536 63.081938 -5.135237 -4.863740 -21.986800 1.618145 0.396417 0.572532 14.050911 -37.089740 -62.646795 -63.140975 -51.687066 -46.669074 13.164558 -3.415971 29.023506 -2.089410 -10.122760 2.421538 6.606434 20.281784 1.023931 -14.383014 -7.037440 -1.509627 0.000000 -0.000000 0.000000 10.057487 -17.998905 5.813794 5.230423 60.246831 6.282519 -0.749834 -4.042722 -8.036838 0.000000 0.000000 0.000000
6.812405 98.221940 35.254473 -81.592300 -2.562615 -0.572478 0.627330 2.101183 -0.455354 0.301735 -4.893061 -0.205909 0.300695 0.927290 -0.175275 0.212296 6.532050 -0.132742 1.377793 16.038686 0.542149 2.368005 -6.241234 0.511684 -2.718953 -2.944892 -0.858534 -6.330199 -34.037161 59.886632 47.036931 -52.227988 63.555719 -5.003990 -5.040990 -22.759860 1.542683 -0.014551 0.637271 12.326977 -37.894905 -61.552070 -62.805259 -51.602606 -45.858776 13.149584 -3.751892 29.339347 -2.486902 -9.186588 2.438238 6.526386 19.820385 0.899358 -14.094112 -7.404046 -1.689514 0.000000 0.000000 0.000000 10.036671 -19.119884 5.421911 5.804419 58.535180 6.202735 -1.194793 -5.855177 -8.185960 0.014054 0.763825 0.008971
5.913059 98.345408 35.223558 -81.327007 -2.618742 -0.543239 0.609283 1.989950 -0.510652 0.296331 -4.942543 -0.230364 0.295286 0.877811 -0.200279 0.206348 6.494926 -0.151574 1.361113 16.212939 0.554437 2.331395 -5.917976 0.543073 -2.632925 -3.333599 -0.984913 -5.547648 -34.741360 59.345300 45.770876 -52.391766 63.902854 -4.813994 -5.204801 -23.555537 1.428847 -0.386129 0.686550 10.347063 -38.712783 -60.363756 -62.730136 -51.310154 -44.583590 13.162942 -4.100460 29.515305 -3.013433 -8.200145 2.495236 6.550871 19.171778 0.780347 -13.842670 -7.669804 -1.846218 -0.000000 0.000000 -0.000000 9.690942 -20.057223 5.081003 5.975766 56.000243 5.528743 -1.800285 -7.468861 -8.538691 0.011393 0.381886 0.000899
5.043944 98.457520 35.226946 -81.077493 -2.623223 -0.520458 0.571736 1.867583 -0.551810 0.281513 -4.996931 -0.248435 0.280495 0.823431 -0.219854 0.193768 6.454133 -0.166291 1.357523 16.368832 0.549288 2.325606 -5.628424 0.537015 -2.511292 -3.707527 -1.125985 -4.705371 -35.411808 58.775113 44.767736 -52.527393 63.835143 -4.716517 -5.399478 -24.055184 1.368315 -0.717543 0.711922 8.479344 -39.507047 -59.238712 -62.453641 -51.019594 -43.566788 13.152332 -4.390544 29.681120 -3.343626 -7.299654 2.523219 6.448814 18.540300 0.660639 -13.648767 -7.929352 -1.976310 0.000000 -0.000000 0.000000 9.258374 -20.804054 4.692543 5.600789 52.834642 4.441644 -1.946672 -8.695203 -8.852347 0.000000 0.000000 0.000000
4.213804 98.558952 35.278038 -80.848276 -2.559820 -0.484413 0.501241 1.735260 -0.577320 0.251243 -5.055681 -0.259415 0.250312 0.764694 -0.233908 0.170058 6.410082 -0.176820 1.375298 16.496626 0.509179 2.372005 -5.390344 0.458127 -2.324453 -4.062478 -1.301044 -3.768596 -36.018152 58.136134 44.298288 -52.642617 63.049192 -4.822261 -5.688699 -23.998490 1.428497 -1.014643 0.700847 6.876101 -40.268980 -58.243409 -61.768641 -50.842539 -43.126370 13.085271 -4.576419 29.888911 -3.288298 -6.550655 2.490273 6.111180 17.996638 0.552666 -13.579841 -8.209716 -2.072983 -0.000000 -0.000000 0.000000 8.777250 -21.361503 4.168538 4.430808 48.970973 2.894927 -1.087551 -9.553794 -8.937306 0.000000 0.000000 0.000000
3.413896 98.649028 35.363433 -80.634782 -2.444749 -0.454140 0.411123 1.591537 -0.588333 0.211514 -5.119453 -0.263897 0.210711 0.700938 -0.242423 0.139699 6.362275 -0.183162 1.405853 16.606112 0.451325 2.448275 -5.185821 0.341732 -2.101098 -4.402362 -1.489826 -2.772584 -36.588170 57.469241 44.089359 -52.713849 61.849269 -5.020421 -6.014596 -23.641754 1.543576 -1.271623 0.666996 5.397757 -41.024785 -57.315840 -60.905784 -50.685319 -42.923287 12.994538 -4.703542 30.086290 -3.039171 -5.886880 2.438503 5.647485 17.469515 0.448241 -13.569112 -8.484235 -2.141717 0.000000 -0.000000 0.000000 8.204589 -21.731853 3.600816 3.013857 44.444080 1.279372 0.192873 -10.048406 -8.842523 0.000000 -0.000000 0.000000
2.616833 98.715419 35.462634 -80.505178 -2.309887 -0.435898 0.344811 1.441261 -0.600961 0.182435 -5.186164 -0.269228 0.181726 0.634238 -0.250707 0.117314 6.312257 -0.189346 1.437484 16.700392 0.406082 2.522016 -5.009652 0.248298 -1.886487 -4.720420 -1.645599 -1.753776 -37.174766 56.836662 43.642245 -52.785777 60.855735 -5.131130 -6.245152 -23.444750 1.604945 -1.470701 0.641776 3.981728 -41.803061 -56.423758 -60.094632 -50.468908 -42.663402 12.925458 -4.836483 30.247380 -2.844372 -5.248557 2.411353 5.154651 16.949117 0.314984 -13.434956 -8.767373 -2.199089 0.000000 0.000000 0.000000 7.660639 -21.906828 3.154085 2.162190 39.631155 0.170379 0.834291 -9.954359 -8.776194 0.000000 0.000000 0.000000
1.821778 98.755848 35.558400 -80.456293 -2.156557 -0.427142 0.308530 1.289124 -0.631491 0.167567 -5.253746 -0.282676 0.166899 0.566662 -0.265665 0.105039 6.261573 -0.200582 1.464388 16.765566 0.393228 2.575776 -4.888094 0.216178 -1.696605 -5.013837 -1.741536 -0.755521 -37.831633 56.260815 42.591844 -52.885631 60.507094 -5.020705 -6.303903 -23.695762 1.554535 -1.596261 0.645894 2.593168 -42.666076 -55.521109 -59.423112 -50.124303 -42.240987 12.914361 -5.013555 30.343273 -2.789220 -4.618024 2.428130 4.582766 16.408127 0.115503 -13.080214 -9.046470 -2.255058 -0.000000 -0.000000 0.000000 7.345155 -21.858832 2.869024 1.999685 34.466395 -0.382470 0.208358 -8.975159 -9.039413 0.000000 0.000000 0.000000
1.029569 98.772591 35.667972 -80.491350 -1.983325 -0.430950 0.295936 1.130448 -0.663336 0.163268 -5.324264 -0.296792 0.162600 0.496145 -0.280218 0.100685 6.208680 -0.211520 1.492301 16.815448 0.392808 2.627142 -4.795117 0.206540 -1.517263 -5.286357 -1.803754 0.264801 -38.508402 55.717064 41.306909 -53.002738 60.363212 -4.824216 -6.265991 -24.108561 1.449969 -1.663828 0.658687 1.258387 -43.552081 -54.639168 -58.795587 -49.719261 -41.768144 12.924061 -5.197448 30.401842 -2.786168 -4.013464 2.464195 3.983092 15.871450 -0.105099 -12.601681 -9.334423 -2.300919 0.000000 -0.000000 0.000000 7.055363 -21.612402 2.702284 2.180677 29.039884 -0.686786 -0.950948 -7.391811 -9.595636 0.000000 0.000000 0.000000
